999
dxfrw 0.6.1
  0
SECTION
  2
HEADER
  9
$ACADVER
  1
AC1021
  9
$DWGCODEPAGE
  3
ANSI_1252
  9
$INSBASE
 10
0
 20
0
 30
0
  9
$EXTMIN
 10
-91.5
 20
-39
 30
0
  9
$EXTMAX
 10
91.5
 20
139
 30
0
  9
$LIMMIN
 10
0
 20
0
  9
$LIMMAX
 10
420
 20
297
  9
$ORTHOMODE
 70
    0
  9
$REGENMODE
 70
    1
  9
$FILLMODE
 70
    1
  9
$QTEXTMODE
 70
    0
  9
$MIRRTEXT
 70
    0
  9
$LTSCALE
 40
1
  9
$ATTMODE
 70
    0
  9
$TEXTSIZE
 40
2.5
  9
$TRACEWID
 40
15.68
  9
$TEXTSTYLE
  7
STANDARD
  9
$CLAYER
  8
rear
  9
$CELTYPE
  6
BYLAYER
  9
$CECOLOR
 62
  256
  9
$CELTSCALE
 40
1
  9
$DISPSILH
 70
    0
  9
$DIMSCALE
 40
2.5
  9
$DIMASZ
 40
2.5
  9
$DIMEXO
 40
0.625
  9
$DIMDLI
 40
3.75
  9
$DIMRND
 40
0
  9
$DIMDLE
 40
0
  9
$DIMEXE
 40
1.25
  9
$DIMTP
 40
0
  9
$DIMTM
 40
0
  9
$DIMTXT
 40
2.5
  9
$DIMCEN
 40
2.5
  9
$DIMTSZ
 40
0
  9
$DIMTOL
 70
    0
  9
$DIMLIM
 70
    0
  9
$DIMTIH
 70
    0
  9
$DIMTOH
 70
    0
  9
$DIMSE1
 70
    0
  9
$DIMSE2
 70
    0
  9
$DIMTAD
 70
    1
  9
$DIMZIN
 70
    8
  9
$DIMBLK
  1

  9
$DIMASO
 70
    1
  9
$DIMSHO
 70
    1
  9
$DIMPOST
  1

  9
$DIMAPOST
  1

  9
$DIMALT
 70
    0
  9
$DIMALTD
 70
    3
  9
$DIMALTF
 40
0.03937
  9
$DIMLFAC
 40
1
  9
$DIMTOFL
 70
    1
  9
$DIMTVP
 40
0
  9
$DIMTIX
 70
    0
  9
$DIMSOXD
 70
    0
  9
$DIMSAH
 70
    0
  9
$DIMBLK1
  1

  9
$DIMBLK2
  1

  9
$DIMSTYLE
  2
STANDARD
  9
$DIMCLRD
 70
    0
  9
$DIMCLRE
 70
    0
  9
$DIMCLRT
 70
    0
  9
$DIMTFAC
 40
1
  9
$DIMGAP
 40
0.625
  9
$DIMJUST
 70
    0
  9
$DIMSD1
 70
    0
  9
$DIMSD2
 70
    0
  9
$DIMTOLJ
 70
    0
  9
$DIMTZIN
 70
    8
  9
$DIMALTZ
 70
    0
  9
$DIMALTTZ
 70
    0
  9
$DIMUPT
 70
    0
  9
$DIMDEC
 70
    2
  9
$DIMTDEC
 70
    2
  9
$DIMALTU
 70
    2
  9
$DIMALTTD
 70
    3
  9
$DIMTXSTY
  7
STANDARD
  9
$DIMAUNIT
 70
    0
  9
$DIMADEC
 70
    0
  9
$DIMALTRND
 40
0
  9
$DIMAZIN
 70
    0
  9
$DIMDSEP
 70
   44
  9
$DIMATFIT
 70
    3
  9
$DIMFRAC
 70
    0
  9
$DIMLDRBLK
  1
STANDARD
  9
$DIMLUNIT
 70
    2
  9
$DIMLWD
 70
   -2
  9
$DIMLWE
 70
   -2
  9
$DIMTMOVE
 70
    0
  9
$DIMFXL
 40
1
  9
$DIMFXLON
 70
    0
  9
$DIMJOGANG
 40
0.7854
  9
$DIMTFILL
 70
    0
  9
$DIMTFILLCLR
 70
    0
  9
$DIMARCSYM
 70
    0
  9
$DIMLTYPE
  6

  9
$DIMLTEX1
  6

  9
$DIMLTEX2
  6

  9
$LUNITS
 70
    2
  9
$LUPREC
 70
    4
  9
$SKETCHINC
 40
1
  9
$FILLETRAD
 40
0
  9
$AUNITS
 70
    0
  9
$AUPREC
 70
    2
  9
$MENU
  1
.
  9
$ELEVATION
 40
0
  9
$PELEVATION
 40
0
  9
$THICKNESS
 40
0
  9
$LIMCHECK
 70
    0
  9
$CHAMFERA
 40
0
  9
$CHAMFERB
 40
0
  9
$CHAMFERC
 40
0
  9
$CHAMFERD
 40
0
  9
$SKPOLY
 70
    0
  9
$USRTIMER
 70
    1
  9
$ANGBASE
 50
0
  9
$ANGDIR
 70
    0
  9
$PDMODE
 70
   34
  9
$PDSIZE
 40
0
  9
$PLINEWID
 40
0
  9
$SPLFRAME
 70
    0
  9
$SPLINETYPE
 70
    2
  9
$SPLINESEGS
 70
    8
  9
$HANDSEED
  5
20000
  9
$SURFTAB1
 70
    6
  9
$SURFTAB2
 70
    6
  9
$SURFTYPE
 70
    6
  9
$SURFU
 70
    6
  9
$SURFV
 70
    6
  9
$UCSBASE
  2

  9
$UCSNAME
  2

  9
$UCSORG
 10
0
 20
0
 30
0
  9
$UCSXDIR
 10
1
 20
0
 30
0
  9
$UCSYDIR
 10
0
 20
1
 30
0
  9
$UCSORTHOREF
  2

  9
$UCSORTHOVIEW
 70
    0
  9
$UCSORGTOP
 10
0
 20
0
 30
0
  9
$UCSORGBOTTOM
 10
0
 20
0
 30
0
  9
$UCSORGLEFT
 10
0
 20
0
 30
0
  9
$UCSORGRIGHT
 10
0
 20
0
 30
0
  9
$UCSORGFRONT
 10
0
 20
0
 30
0
  9
$UCSORGBACK
 10
0
 20
0
 30
0
  9
$PUCSBASE
  2

  9
$PUCSNAME
  2

  9
$PUCSORG
 10
0
 20
0
 30
0
  9
$PUCSXDIR
 10
1
 20
0
 30
0
  9
$PUCSYDIR
 10
0
 20
1
 30
0
  9
$PUCSORTHOREF
  2

  9
$PUCSORTHOVIEW
 70
    0
  9
$PUCSORGTOP
 10
0
 20
0
 30
0
  9
$PUCSORGBOTTOM
 10
0
 20
0
 30
0
  9
$PUCSORGLEFT
 10
0
 20
0
 30
0
  9
$PUCSORGRIGHT
 10
0
 20
0
 30
0
  9
$PUCSORGFRONT
 10
0
 20
0
 30
0
  9
$PUCSORGBACK
 10
0
 20
0
 30
0
  9
$USERI1
 70
    0
  9
$USERI2
 70
    0
  9
$USERI3
 70
    0
  9
$USERI4
 70
    0
  9
$USERI5
 70
    0
  9
$USERR1
 40
0
  9
$USERR2
 40
0
  9
$USERR3
 40
0
  9
$USERR4
 40
0
  9
$USERR5
 40
0
  9
$WORLDVIEW
 70
    1
  9
$SHADEDGE
 70
    3
  9
$SHADEDIF
 70
   70
  9
$TILEMODE
 70
    1
  9
$MAXACTVP
 70
   64
  9
$PINSBASE
 10
0
 20
0
 30
0
  9
$PLIMCHECK
 70
    0
  9
$PEXTMIN
 10
0
 20
0
 30
0
  9
$PEXTMAX
 10
0
 20
0
 30
0
  9
$GRIDMODE
 70
    1
  9
$SNAPSTYLE
 70
    0
  9
$PLIMMIN
 10
0
 20
0
  9
$PLIMMAX
 10
210
 20
297
  9
$UNITMODE
 70
    0
  9
$VISRETAIN
 70
    1
  9
$PLINEGEN
 70
    0
  9
$PSLTSCALE
 70
    1
  9
$TREEDEPTH
 70
 3020
  9
$CMLSTYLE
  2
Standard
  9
$CMLJUST
 70
    0
  9
$CMLSCALE
 40
20
  9
$PROXYGRAPHICS
 70
    1
  9
$MEASUREMENT
 70
    1
  9
$CELWEIGHT
370
   -1
  9
$ENDCAPS
280
    0
  9
$JOINSTYLE
280
    0
  9
$LWDISPLAY
290
    0
  9
$INSUNITS
 70
    4
  9
$HYPERLINKBASE
  1

  9
$STYLESHEET
  1

  9
$XEDIT
290
    1
  9
$CEPSNTYPE
380
    0
  9
$PSTYLEMODE
290
    1
  9
$EXTNAMES
290
    1
  9
$PSVPSCALE
 40
1
  9
$OLESTARTUP
290
    0
  9
$SORTENTS
280
  127
  9
$INDEXCTL
280
    0
  9
$HIDETEXT
280
    1
  9
$XCLIPFRAME
290
    0
  9
$HALOGAP
280
    0
  9
$OBSCOLOR
 70
  257
  9
$OBSLTYPE
280
    0
  9
$INTERSECTIONDISPLAY
280
    0
  9
$INTERSECTIONCOLOR
 70
  257
  9
$DIMASSOC
280
    0
  9
$PROJECTNAME
  1

  9
$CAMERADISPLAY
290
    0
  9
$LENSLENGTH
 40
50
  9
$CAMERAHEIGHT
 40
0
  9
$STEPSPERSEC
 40
2
  9
$STEPSIZE
 40
50
  9
$3DDWFPREC
 40
2
  9
$PSOLWIDTH
 40
5
  9
$PSOLHEIGHT
 40
80
  9
$LOFTANG1
 40
1.570796326794897
  9
$LOFTANG2
 40
1.570796326794897
  9
$LOFTMAG1
 40
0
  9
$LOFTMAG2
 40
0
  9
$LOFTPARAM
 70
    7
  9
$LOFTNORMALS
280
    1
  9
$LATITUDE
 40
1
  9
$LONGITUDE
 40
1
  9
$NORTHDIRECTION
 40
0
  9
$TIMEZONE
 70
-8000
  9
$LIGHTGLYPHDISPLAY
280
    1
  9
$TILEMODELIGHTSYNCH
280
    1
  9
$SOLIDHIST
280
    1
  9
$SHOWHIST
280
    1
  9
$DWFFRAME
280
    2
  9
$DGNFRAME
280
    0
  9
$REALWORLDSCALE
290
    1
  9
$INTERFERECOLOR
 62
    1
  9
$CSHADOW
280
    0
  9
$SHADOWPLANELOCATION
 40
0
  0
ENDSEC
  0
SECTION
  2
CLASSES
  0
ENDSEC
  0
SECTION
  2
TABLES
  0
TABLE
  2
VPORT
  5
8
330
0
100
AcDbSymbolTable
 70
    1
  0
VPORT
  5
31
330
2
100
AcDbSymbolTableRecord
100
AcDbViewportTableRecord
  2
*ACTIVE
 70
    0
 10
0
 20
0
 11
1
 21
1
 12
6.583699705269643
 22
1.269452144966485
 13
0
 23
0
 14
10
 24
10
 15
10
 25
10
 16
0
 26
0
 36
1
 17
0
 27
0
 37
0
 40
4.255901647869901
 41
2.121693121693122
 42
50
 43
0
 44
0
 50
0
 51
0
 71
    0
 72
  100
 73
    1
 74
    3
 75
    0
 76
    1
 77
    0
 78
    0
281
    0
 65
    1
110
0
120
0
130
0
111
1
121
0
131
0
112
0
122
1
132
0
 79
    0
146
0
348
10020
 60
    7
 61
    5
292
1
282
    1
141
0
142
0
 63
  250
421
3358443
  0
ENDTAB
  0
TABLE
  2
LTYPE
  5
5
330
0
100
AcDbSymbolTable
 70
    4
  0
LTYPE
  5
14
330
5
100
AcDbSymbolTableRecord
100
AcDbLinetypeTableRecord
  2
ByBlock
 70
    0
  3

 72
   65
 73
    0
 40
0
  0
LTYPE
  5
15
330
5
100
AcDbSymbolTableRecord
100
AcDbLinetypeTableRecord
  2
ByLayer
 70
    0
  3

 72
   65
 73
    0
 40
0
  0
LTYPE
  5
16
330
5
100
AcDbSymbolTableRecord
100
AcDbLinetypeTableRecord
  2
Continuous
 70
    0
  3
Solid line
 72
   65
 73
    0
 40
0
  0
LTYPE
  5
32
330
5
100
AcDbSymbolTableRecord
100
AcDbLinetypeTableRecord
  2
DOT
 70
    0
  3
Dot . . . . . . . . . . . . . . . . . . . . . .
 72
   65
 73
    2
 40
6.35
 49
0
 74
    0
 49
-6.35
 74
    0
  0
LTYPE
  5
33
330
5
100
AcDbSymbolTableRecord
100
AcDbLinetypeTableRecord
  2
DOTTINY
 70
    0
  3
Dot (.15x) .....................................
 72
   65
 73
    2
 40
0.9525
 49
0
 74
    0
 49
-0.9525
 74
    0
  0
LTYPE
  5
34
330
5
100
AcDbSymbolTableRecord
100
AcDbLinetypeTableRecord
  2
DOT2
 70
    0
  3
Dot (.5x) .....................................
 72
   65
 73
    2
 40
3.175
 49
0
 74
    0
 49
-3.175
 74
    0
  0
LTYPE
  5
35
330
5
100
AcDbSymbolTableRecord
100
AcDbLinetypeTableRecord
  2
DOTX2
 70
    0
  3
Dot (2x) .  .  .  .  .  .  .  .  .  .  .  .  .
 72
   65
 73
    2
 40
12.7
 49
0
 74
    0
 49
-12.7
 74
    0
  0
LTYPE
  5
36
330
5
100
AcDbSymbolTableRecord
100
AcDbLinetypeTableRecord
  2
DASHED
 70
    0
  3
Dashed _ _ _ _ _ _ _ _ _ _ _ _ _ _ _ _ _
 72
   65
 73
    2
 40
19.05
 49
12.7
 74
    0
 49
-6.35
 74
    0
  0
LTYPE
  5
37
330
5
100
AcDbSymbolTableRecord
100
AcDbLinetypeTableRecord
  2
DASHEDTINY
 70
    0
  3
Dashed (.15x) _ _ _ _ _ _ _ _ _ _ _ _ _ _ _ _ _
 72
   65
 73
    2
 40
2.8575
 49
1.905
 74
    0
 49
-0.9525
 74
    0
  0
LTYPE
  5
38
330
5
100
AcDbSymbolTableRecord
100
AcDbLinetypeTableRecord
  2
DASHED2
 70
    0
  3
Dashed (.5x) _ _ _ _ _ _ _ _ _ _ _ _ _ _ _ _ _
 72
   65
 73
    2
 40
9.524999999999999
 49
6.35
 74
    0
 49
-3.175
 74
    0
  0
LTYPE
  5
39
330
5
100
AcDbSymbolTableRecord
100
AcDbLinetypeTableRecord
  2
DASHEDX2
 70
    0
  3
Dashed (2x) ____  ____  ____  ____  ____  ___
 72
   65
 73
    2
 40
38.09999999999999
 49
25.4
 74
    0
 49
-12.7
 74
    0
  0
LTYPE
  5
3A
330
5
100
AcDbSymbolTableRecord
100
AcDbLinetypeTableRecord
  2
DASHDOT
 70
    0
  3
Dash dot __ . __ . __ . __ . __ . __ . __ . __
 72
   65
 73
    4
 40
25.4
 49
12.7
 74
    0
 49
-6.35
 74
    0
 49
0
 74
    0
 49
-6.35
 74
    0
  0
LTYPE
  5
3B
330
5
100
AcDbSymbolTableRecord
100
AcDbLinetypeTableRecord
  2
DASHDOTTINY
 70
    0
  3
Dash dot (.15x) _._._._._._._._._._._._._._._.
 72
   65
 73
    4
 40
3.81
 49
1.905
 74
    0
 49
-0.9525
 74
    0
 49
0
 74
    0
 49
-0.9525
 74
    0
  0
LTYPE
  5
3C
330
5
100
AcDbSymbolTableRecord
100
AcDbLinetypeTableRecord
  2
DASHDOT2
 70
    0
  3
Dash dot (.5x) _._._._._._._._._._._._._._._.
 72
   65
 73
    4
 40
12.7
 49
6.35
 74
    0
 49
-3.175
 74
    0
 49
0
 74
    0
 49
-3.175
 74
    0
  0
LTYPE
  5
3D
330
5
100
AcDbSymbolTableRecord
100
AcDbLinetypeTableRecord
  2
DASHDOTX2
 70
    0
  3
Dash dot (2x) ____  .  ____  .  ____  .  ___
 72
   65
 73
    4
 40
50.8
 49
25.4
 74
    0
 49
-12.7
 74
    0
 49
0
 74
    0
 49
-12.7
 74
    0
  0
LTYPE
  5
3E
330
5
100
AcDbSymbolTableRecord
100
AcDbLinetypeTableRecord
  2
DIVIDE
 70
    0
  3
Divide ____ . . ____ . . ____ . . ____ . . ____
 72
   65
 73
    6
 40
31.75
 49
12.7
 74
    0
 49
-6.35
 74
    0
 49
0
 74
    0
 49
-6.35
 74
    0
 49
0
 74
    0
 49
-6.35
 74
    0
  0
LTYPE
  5
3F
330
5
100
AcDbSymbolTableRecord
100
AcDbLinetypeTableRecord
  2
DIVIDETINY
 70
    0
  3
Divide (.15x) __..__..__..__..__..__..__..__.._
 72
   65
 73
    6
 40
4.7625
 49
1.905
 74
    0
 49
-0.9525
 74
    0
 49
0
 74
    0
 49
-0.9525
 74
    0
 49
0
 74
    0
 49
-0.9525
 74
    0
  0
LTYPE
  5
40
330
5
100
AcDbSymbolTableRecord
100
AcDbLinetypeTableRecord
  2
DIVIDE2
 70
    0
  3
Divide (.5x) __..__..__..__..__..__..__..__.._
 72
   65
 73
    6
 40
15.875
 49
6.35
 74
    0
 49
-3.175
 74
    0
 49
0
 74
    0
 49
-3.175
 74
    0
 49
0
 74
    0
 49
-3.175
 74
    0
  0
LTYPE
  5
41
330
5
100
AcDbSymbolTableRecord
100
AcDbLinetypeTableRecord
  2
DIVIDEX2
 70
    0
  3
Divide (2x) ________  .  .  ________  .  .  _
 72
   65
 73
    6
 40
63.5
 49
25.4
 74
    0
 49
-12.7
 74
    0
 49
0
 74
    0
 49
-12.7
 74
    0
 49
0
 74
    0
 49
-12.7
 74
    0
  0
LTYPE
  5
42
330
5
100
AcDbSymbolTableRecord
100
AcDbLinetypeTableRecord
  2
BORDER
 70
    0
  3
Border __ __ . __ __ . __ __ . __ __ . __ __ .
 72
   65
 73
    6
 40
44.45
 49
12.7
 74
    0
 49
-6.35
 74
    0
 49
12.7
 74
    0
 49
-6.35
 74
    0
 49
0
 74
    0
 49
-6.35
 74
    0
  0
LTYPE
  5
43
330
5
100
AcDbSymbolTableRecord
100
AcDbLinetypeTableRecord
  2
BORDERTINY
 70
    0
  3
Border (.15x) __.__.__.__.__.__.__.__.__.__.__.
 72
   65
 73
    6
 40
6.6675
 49
1.905
 74
    0
 49
-0.9525
 74
    0
 49
1.905
 74
    0
 49
-0.9525
 74
    0
 49
0
 74
    0
 49
-0.9525
 74
    0
  0
LTYPE
  5
44
330
5
100
AcDbSymbolTableRecord
100
AcDbLinetypeTableRecord
  2
BORDER2
 70
    0
  3
Border (.5x) __.__.__.__.__.__.__.__.__.__.__.
 72
   65
 73
    6
 40
22.225
 49
6.35
 74
    0
 49
-3.175
 74
    0
 49
6.35
 74
    0
 49
-3.175
 74
    0
 49
0
 74
    0
 49
-3.175
 74
    0
  0
LTYPE
  5
45
330
5
100
AcDbSymbolTableRecord
100
AcDbLinetypeTableRecord
  2
BORDERX2
 70
    0
  3
Border (2x) ____  ____  .  ____  ____  .  ___
 72
   65
 73
    6
 40
88.89999999999999
 49
25.4
 74
    0
 49
-12.7
 74
    0
 49
25.4
 74
    0
 49
-12.7
 74
    0
 49
0
 74
    0
 49
-12.7
 74
    0
  0
LTYPE
  5
46
330
5
100
AcDbSymbolTableRecord
100
AcDbLinetypeTableRecord
  2
CENTER
 70
    0
  3
Center ____ _ ____ _ ____ _ ____ _ ____ _ ____
 72
   65
 73
    4
 40
50.8
 49
31.75
 74
    0
 49
-6.35
 74
    0
 49
6.35
 74
    0
 49
-6.35
 74
    0
  0
LTYPE
  5
47
330
5
100
AcDbSymbolTableRecord
100
AcDbLinetypeTableRecord
  2
CENTERTINY
 70
    0
  3
Center (.15x) ___ _ ___ _ ___ _ ___ _ ___ _ ___
 72
   65
 73
    4
 40
7.619999999999999
 49
4.7625
 74
    0
 49
-0.9525
 74
    0
 49
0.9525
 74
    0
 49
-0.9525
 74
    0
  0
LTYPE
  5
48
330
5
100
AcDbSymbolTableRecord
100
AcDbLinetypeTableRecord
  2
CENTER2
 70
    0
  3
Center (.5x) ___ _ ___ _ ___ _ ___ _ ___ _ ___
 72
   65
 73
    4
 40
28.575
 49
19.05
 74
    0
 49
-3.175
 74
    0
 49
3.175
 74
    0
 49
-3.175
 74
    0
  0
LTYPE
  5
49
330
5
100
AcDbSymbolTableRecord
100
AcDbLinetypeTableRecord
  2
CENTERX2
 70
    0
  3
Center (2x) ________  __  ________  __  _____
 72
   65
 73
    4
 40
101.6
 49
63.5
 74
    0
 49
-12.7
 74
    0
 49
12.7
 74
    0
 49
-12.7
 74
    0
  0
ENDTAB
  0
TABLE
  2
LAYER
  5
2
330
0
100
AcDbSymbolTable
 70
    1
  0
LAYER
  5
10
330
2
100
AcDbSymbolTableRecord
100
AcDbLayerTableRecord
  2
0
 70
    1
 62
    7
  6
CONTINUOUS
370
    0
390
F
  0
LAYER
  5
4A
330
2
100
AcDbSymbolTableRecord
100
AcDbLayerTableRecord
  2
face
 70
    1
 62
    7
  6
CONTINUOUS
370
    0
390
F
  0
LAYER
  5
4B
330
2
100
AcDbSymbolTableRecord
100
AcDbLayerTableRecord
  2
frame
 70
    1
 62
    7
  6
CONTINUOUS
370
    0
390
F
  0
LAYER
  5
4C
330
2
100
AcDbSymbolTableRecord
100
AcDbLayerTableRecord
  2
rear
 70
    0
 62
    7
  6
CONTINUOUS
370
    0
390
F
  0
LAYER
  5
4D
330
2
100
AcDbSymbolTableRecord
100
AcDbLayerTableRecord
  2
tubes
 70
    1
 62
    7
  6
CONTINUOUS
370
    0
390
F
  0
LAYER
  5
4E
330
2
100
AcDbSymbolTableRecord
100
AcDbLayerTableRecord
  2
wireframe
 70
    1
 62
    7
  6
CONTINUOUS
370
    0
390
F
  0
ENDTAB
  0
TABLE
  2
STYLE
  5
3
330
0
100
AcDbSymbolTable
 70
    3
  0
STYLE
  5
4F
330
2
100
AcDbSymbolTableRecord
100
AcDbTextStyleTableRecord
  2
Standard
 70
    0
 40
0
 41
1
 50
0
 71
    0
 42
1
  3
txt
  4

  0
ENDTAB
  0
TABLE
  2
VIEW
  5
6
330
0
100
AcDbSymbolTable
 70
    0
  0
ENDTAB
  0
TABLE
  2
UCS
  5
7
330
0
100
AcDbSymbolTable
 70
    0
  0
ENDTAB
  0
TABLE
  2
APPID
  5
9
330
0
100
AcDbSymbolTable
 70
    1
  0
APPID
  5
12
330
9
100
AcDbSymbolTableRecord
100
AcDbRegAppTableRecord
  2
ACAD
 70
    0
  0
APPID
  5
50
330
9
100
AcDbSymbolTableRecord
100
AcDbRegAppTableRecord
  2
LibreCad
 70
    0
  0
ENDTAB
  0
TABLE
  2
DIMSTYLE
  5
A
330
0
100
AcDbSymbolTable
 70
    1
100
AcDbDimStyleTable
 71
    1
  0
DIMSTYLE
105
51
330
A
100
AcDbSymbolTableRecord
100
AcDbDimStyleTableRecord
  2
Standard
 70
    0
 40
1
 41
2.5
 42
0.625
 43
0.38
 44
1.25
 45
0
 46
0
 47
0
 48
0
140
2.5
141
0.09
142
0
143
25.4
144
1
145
0
146
1
147
0.625
148
0
 71
    0
 72
    0
 73
    0
 74
    1
 75
    0
 76
    0
 77
    0
 78
    0
 79
    0
170
    0
171
    2
172
    0
173
    0
174
    0
175
    0
176
    0
177
    0
178
    0
179
    0
271
    4
272
    4
273
    2
274
    2
275
    0
276
    0
277
    2
278
   46
279
    0
280
    0
281
    0
282
    0
283
    1
284
    0
285
    0
286
    0
288
    0
289
    3
340
Standard
341

371
   -2
372
   -2
  0
ENDTAB
  0
TABLE
  2
BLOCK_RECORD
  5
1
330
0
100
AcDbSymbolTable
 70
    2
  0
BLOCK_RECORD
  5
1F
330
1
100
AcDbSymbolTableRecord
100
AcDbBlockTableRecord
  2
*Model_Space
 70
    0
280
    1
281
    0
  0
BLOCK_RECORD
  5
1E
330
1
100
AcDbSymbolTableRecord
100
AcDbBlockTableRecord
  2
*Paper_Space
 70
    0
280
    1
281
    0
  0
ENDTAB
  0
ENDSEC
  0
SECTION
  2
BLOCKS
  0
BLOCK
  5
20
330
1F
100
AcDbEntity
  8
0
100
AcDbBlockBegin
  2
*Model_Space
 70
    0
 10
0
 20
0
 30
0
  3
*Model_Space
  1

  0
ENDBLK
  5
21
330
1F
100
AcDbEntity
  8
0
100
AcDbBlockEnd
  0
BLOCK
  5
1C
330
1B
100
AcDbEntity
  8
0
100
AcDbBlockBegin
  2
*Paper_Space
 70
    0
 10
0
 20
0
 30
0
  3
*Paper_Space
  1

  0
ENDBLK
  5
1D
330
1F
100
AcDbEntity
  8
0
100
AcDbBlockEnd
  0
ENDSEC
  0
SECTION
  2
ENTITIES
  0
CIRCLE
  5
52
100
AcDbEntity
  8
0
  6
ByLayer
 62
  256
370
   -1
100
AcDbCircle
 10
52.5
 20
0
 40
7
  0
CIRCLE
  5
53
100
AcDbEntity
  8
0
  6
ByLayer
 62
  256
370
   -1
100
AcDbCircle
 10
-52.5
 20
0
 40
7
  0
CIRCLE
  5
54
100
AcDbEntity
  8
0
  6
ByLayer
 62
  256
370
   -1
100
AcDbCircle
 10
52.5
 20
0
 40
39
  0
CIRCLE
  5
55
100
AcDbEntity
  8
0
  6
ByLayer
 62
  256
370
   -1
100
AcDbCircle
 10
-52.5
 20
0
 40
39
  0
CIRCLE
  5
56
100
AcDbEntity
  8
0
  6
ByLayer
 62
  256
370
   -1
100
AcDbCircle
 10
52.5
 20
100
 40
7
  0
CIRCLE
  5
57
100
AcDbEntity
  8
0
  6
ByLayer
 62
  256
370
   -1
100
AcDbCircle
 10
-52.5
 20
100
 40
7
  0
CIRCLE
  5
58
100
AcDbEntity
  8
0
  6
ByLayer
 62
  256
370
   -1
100
AcDbCircle
 10
52.5
 20
100
 40
39
  0
CIRCLE
  5
59
100
AcDbEntity
  8
0
  6
ByLayer
 62
  256
370
   -1
100
AcDbCircle
 10
-52.5
 20
100
 40
39
  0
CIRCLE
  5
5A
100
AcDbEntity
  8
0
  6
ByLayer
 62
  256
370
   -1
100
AcDbCircle
 10
15
 20
65
 40
1.5
  0
CIRCLE
  5
5B
100
AcDbEntity
  8
0
  6
ByLayer
 62
  256
370
   -1
100
AcDbCircle
 10
-15
 20
65
 40
1.5
  0
CIRCLE
  5
5C
100
AcDbEntity
  8
0
  6
ByLayer
 62
  256
370
   -1
100
AcDbCircle
 10
-15
 20
35
 40
1.5
  0
CIRCLE
  5
5D
100
AcDbEntity
  8
0
  6
ByLayer
 62
  256
370
   -1
100
AcDbCircle
 10
15
 20
35
 40
1.5
  0
LINE
  5
5E
100
AcDbEntity
  8
0
  6
ByLayer
 62
  256
370
   -1
100
AcDbLine
 10
1.224646799147353e-16
 20
102
 11
52.5
 21
102
  0
LINE
  5
5F
100
AcDbEntity
  8
0
  6
ByLayer
 62
  256
370
   -1
100
AcDbLine
 10
-3.673940397442059e-16
 20
98
 11
52.5
 21
98
  0
LINE
  5
60
100
AcDbEntity
  8
0
  6
ByLayer
 62
  256
370
   -1
100
AcDbLine
 10
6.123233995736766e-16
 20
102
 11
-52.5
 21
102
  0
LINE
  5
61
100
AcDbEntity
  8
0
  6
ByLayer
 62
  256
370
   -1
100
AcDbLine
 10
-3.673940397442059e-16
 20
98
 11
-52.5
 21
98
  0
LINE
  5
62
100
AcDbEntity
  8
0
  6
ByLayer
 62
  256
370
   -1
100
AcDbLine
 10
-12
 20
100
 11
-12
 21
7.347880794884119e-16
  0
LINE
  5
63
100
AcDbEntity
  8
0
  6
ByLayer
 62
  256
370
   -1
100
AcDbLine
 10
-8
 20
100
 11
-8
 21
-4.898587196589413e-16
  0
LINE
  5
64
100
AcDbEntity
  8
0
  6
ByLayer
 62
  256
370
   -1
100
AcDbLine
 10
8
 20
100
 11
8
 21
7.347880794884119e-16
  0
LINE
  5
65
100
AcDbEntity
  8
0
  6
ByLayer
 62
  256
370
   -1
100
AcDbLine
 10
12
 20
100
 11
12
 21
-4.898587196589413e-16
  0
LINE
  5
66
100
AcDbEntity
  8
0
  6
ByLayer
 62
  256
370
   -1
100
AcDbLine
 10
8.476121364481081
 20
51.29529684019108
 11
50.97612136448108
 21
101.2952968401911
  0
LINE
  5
67
100
AcDbEntity
  8
0
  6
ByLayer
 62
  256
370
   -1
100
AcDbLine
 10
11.52387863551892
 20
48.70470315980892
 11
54.02387863551892
 21
98.70470315980891
  0
LINE
  5
68
100
AcDbEntity
  8
0
  6
ByLayer
 62
  256
370
   -1
100
AcDbLine
 10
8.476121364481081
 20
48.70470315980892
 11
50.97612136448108
 21
-1.29529684019108
  0
LINE
  5
69
100
AcDbEntity
  8
0
  6
ByLayer
 62
  256
370
   -1
100
AcDbLine
 10
11.52387863551892
 20
51.29529684019108
 11
54.02387863551892
 21
1.29529684019108
  0
LINE
  5
6A
100
AcDbEntity
  8
0
  6
ByLayer
 62
  256
370
   -1
100
AcDbLine
 10
1.224646799147353e-16
 20
2
 11
52.5
 21
2
  0
LINE
  5
6B
100
AcDbEntity
  8
0
  6
ByLayer
 62
  256
370
   -1
100
AcDbLine
 10
-3.673940397442059e-16
 20
-2
 11
52.5
 21
-2
  0
LINE
  5
6C
100
AcDbEntity
  8
0
  6
ByLayer
 62
  256
370
   -1
100
AcDbLine
 10
6.123233995736766e-16
 20
2
 11
-52.5
 21
2
  0
LINE
  5
6D
100
AcDbEntity
  8
0
  6
ByLayer
 62
  256
370
   -1
100
AcDbLine
 10
-3.673940397442059e-16
 20
-2
 11
-52.5
 21
-2
  0
LINE
  5
6E
100
AcDbEntity
  8
0
  6
ByLayer
 62
  256
370
   -1
100
AcDbLine
 10
-11.52387863551892
 20
51.29529684019108
 11
-54.02387863551892
 21
1.295296840191081
  0
LINE
  5
6F
100
AcDbEntity
  8
0
  6
ByLayer
 62
  256
370
   -1
100
AcDbLine
 10
-8.476121364481081
 20
48.70470315980892
 11
-50.97612136448108
 21
-1.29529684019108
  0
LINE
  5
70
100
AcDbEntity
  8
0
  6
ByLayer
 62
  256
370
   -1
100
AcDbLine
 10
-11.52387863551892
 20
48.70470315980892
 11
-54.02387863551892
 21
98.70470315980891
  0
LINE
  5
71
100
AcDbEntity
  8
0
  6
ByLayer
 62
  256
370
   -1
100
AcDbLine
 10
-8.476121364481081
 20
51.29529684019108
 11
-50.97612136448108
 21
101.2952968401911
  0
LINE
  5
72
100
AcDbEntity
  8
wireframe
  6
ByLayer
 62
  256
370
   -1
100
AcDbLine
 10
10
 20
50
 11
52.5
 21
0
  0
LINE
  5
73
100
AcDbEntity
  8
wireframe
  6
ByLayer
 62
  256
370
   -1
100
AcDbLine
 10
52.5
 20
0
 11
-52.5
 21
0
  0
LINE
  5
74
100
AcDbEntity
  8
wireframe
  6
ByLayer
 62
  256
370
   -1
100
AcDbLine
 10
-52.5
 20
0
 11
-10
 21
50
  0
LINE
  5
75
100
AcDbEntity
  8
wireframe
  6
ByLayer
 62
  256
370
   -1
100
AcDbLine
 10
-10
 20
100
 11
-10
 21
0
  0
LINE
  5
76
100
AcDbEntity
  8
wireframe
  6
ByLayer
 62
  256
370
   -1
100
AcDbLine
 10
10
 20
100
 11
10
 21
0
  0
LINE
  5
77
100
AcDbEntity
  8
wireframe
  6
ByLayer
 62
  256
370
   -1
100
AcDbLine
 10
-52.5
 20
100
 11
52.5
 21
100
  0
LINE
  5
78
100
AcDbEntity
  8
wireframe
  6
ByLayer
 62
  256
370
   -1
100
AcDbLine
 10
-52.5
 20
100
 11
-10
 21
50
  0
LINE
  5
79
100
AcDbEntity
  8
wireframe
  6
ByLayer
 62
  256
370
   -1
100
AcDbLine
 10
10
 20
50
 11
52.5
 21
100
  0
LINE
  5
7A
100
AcDbEntity
  8
frame
  6
ByLayer
 62
  256
370
   -1
100
AcDbLine
 10
-15.24976189936267
 20
50
 11
-20.09592477884079
 21
55.70136809350366
  0
ARC
  5
7B
100
AcDbEntity
  8
frame
  6
ByLayer
 62
  256
370
   -1
100
AcDbCircle
 10
-20
 20
60
 40
3
100
AcDbArc
 50
314.4770427987964
 51
13.05194056866993
  0
ARC
  5
7C
100
AcDbEntity
  8
frame
  6
ByLayer
 62
  256
370
   -1
100
AcDbCircle
 10
-15
 20
65
 40
3
100
AcDbArc
 50
0
 51
193.0519218718125
  0
LINE
  5
7D
100
AcDbEntity
  8
frame
  6
ByLayer
 62
  256
370
   -1
100
AcDbLine
 10
-12
 20
65
 11
-12
 21
64
  0
LINE
  5
7E
100
AcDbEntity
  8
frame
  6
ByLayer
 62
  256
370
   -1
100
AcDbLine
 10
-17.9224974371159
 20
64.32249816970655
 11
-17.07750278396782
 21
60.67750278396782
  0
LINE
  5
7F
100
AcDbEntity
  8
frame
  6
ByLayer
 62
  256
370
   -1
100
AcDbLine
 10
-17.89812972875813
 20
57.859406305982
 11
-20.09592477884079
 21
55.70136809350366
  0
LINE
  5
80
100
AcDbEntity
  8
frame
  6
ByLayer
 62
  256
370
   -1
100
AcDbLine
 10
-14
 20
90
 11
-6
 21
90
  0
LINE
  5
81
100
AcDbEntity
  8
frame
  6
ByLayer
 62
  256
370
   -1
100
AcDbLine
 10
6
 20
90
 11
14
 21
90
  0
LINE
  5
82
100
AcDbEntity
  8
frame
  6
ByLayer
 62
  256
370
   -1
100
AcDbLine
 10
-6
 20
96
 11
6
 21
96
  0
LINE
  5
83
100
AcDbEntity
  8
frame
  6
ByLayer
 62
  256
370
   -1
100
AcDbLine
 10
-6
 20
96
 11
-6
 21
90
  0
LINE
  5
84
100
AcDbEntity
  8
frame
  6
ByLayer
 62
  256
370
   -1
100
AcDbLine
 10
6
 20
96
 11
6
 21
90
  0
LINE
  5
85
100
AcDbEntity
  8
frame
  6
ByLayer
 62
  256
370
   -1
100
AcDbLine
 10
-14
 20
10
 11
-6
 21
10
  0
LINE
  5
86
100
AcDbEntity
  8
frame
  6
ByLayer
 62
  256
370
   -1
100
AcDbLine
 10
6
 20
10
 11
14
 21
10
  0
LINE
  5
87
100
AcDbEntity
  8
frame
  6
ByLayer
 62
  256
370
   -1
100
AcDbLine
 10
-12
 20
64
 11
-6
 21
55
  0
LINE
  5
88
100
AcDbEntity
  8
frame
  6
ByLayer
 62
  256
370
   -1
100
AcDbLine
 10
-15.24976189936267
 20
50
 11
-20.09592477884079
 21
44.29863190649634
  0
ARC
  5
89
100
AcDbEntity
  8
frame
  6
ByLayer
 62
  256
370
   -1
100
AcDbCircle
 10
-20
 20
40
 40
3
100
AcDbArc
 50
346.9480594313301
 51
45.5229572012036
  0
ARC
  5
8A
100
AcDbEntity
  8
frame
  6
ByLayer
 62
  256
370
   -1
100
AcDbCircle
 10
-15
 20
35
 40
3
100
AcDbArc
 50
166.9480781281875
 51
0
  0
LINE
  5
8B
100
AcDbEntity
  8
frame
  6
ByLayer
 62
  256
370
   -1
100
AcDbLine
 10
-12
 20
35
 11
-12
 21
36
  0
LINE
  5
8C
100
AcDbEntity
  8
frame
  6
ByLayer
 62
  256
370
   -1
100
AcDbLine
 10
-17.9224974371159
 20
35.67750183029345
 11
-17.07750278396782
 21
39.32249721603218
  0
LINE
  5
8D
100
AcDbEntity
  8
frame
  6
ByLayer
 62
  256
370
   -1
100
AcDbLine
 10
-17.89812972875813
 20
42.140593694018
 11
-20.09592477884079
 21
44.29863190649634
  0
LINE
  5
8E
100
AcDbEntity
  8
frame
  6
ByLayer
 62
  256
370
   -1
100
AcDbLine
 10
-12
 20
36
 11
-6
 21
45
  0
LINE
  5
8F
100
AcDbEntity
  8
frame
  6
ByLayer
 62
  256
370
   -1
100
AcDbLine
 10
-6
 20
55
 11
-6
 21
45
  0
LINE
  5
90
100
AcDbEntity
  8
frame
  6
ByLayer
 62
  256
370
   -1
100
AcDbLine
 10
15.24976189936267
 20
50
 11
20.09592477884079
 21
55.70136809350366
  0
ARC
  5
91
100
AcDbEntity
  8
frame
  6
ByLayer
 62
  256
370
   -1
100
AcDbCircle
 10
20
 20
60
 40
3
100
AcDbArc
 50
166.9480594313301
 51
225.5229572012036
  0
ARC
  5
92
100
AcDbEntity
  8
frame
  6
ByLayer
 62
  256
370
   -1
100
AcDbCircle
 10
15
 20
65
 40
3
100
AcDbArc
 50
346.9480781281875
 51
180
  0
LINE
  5
93
100
AcDbEntity
  8
frame
  6
ByLayer
 62
  256
370
   -1
100
AcDbLine
 10
12
 20
65
 11
12
 21
64
  0
LINE
  5
94
100
AcDbEntity
  8
frame
  6
ByLayer
 62
  256
370
   -1
100
AcDbLine
 10
17.9224974371159
 20
64.32249816970655
 11
17.07750278396782
 21
60.67750278396782
  0
LINE
  5
95
100
AcDbEntity
  8
frame
  6
ByLayer
 62
  256
370
   -1
100
AcDbLine
 10
17.89812972875813
 20
57.859406305982
 11
20.09592477884079
 21
55.70136809350366
  0
LINE
  5
96
100
AcDbEntity
  8
frame
  6
ByLayer
 62
  256
370
   -1
100
AcDbLine
 10
12
 20
64
 11
6
 21
55
  0
LINE
  5
97
100
AcDbEntity
  8
frame
  6
ByLayer
 62
  256
370
   -1
100
AcDbLine
 10
15.24976189936267
 20
50
 11
20.09592477884079
 21
44.29863190649634
  0
ARC
  5
98
100
AcDbEntity
  8
frame
  6
ByLayer
 62
  256
370
   -1
100
AcDbCircle
 10
20
 20
40
 40
3
100
AcDbArc
 50
134.4770427987964
 51
193.0519405686699
  0
ARC
  5
99
100
AcDbEntity
  8
frame
  6
ByLayer
 62
  256
370
   -1
100
AcDbCircle
 10
15
 20
35
 40
3
100
AcDbArc
 50
180
 51
13.05192187181252
  0
LINE
  5
9A
100
AcDbEntity
  8
frame
  6
ByLayer
 62
  256
370
   -1
100
AcDbLine
 10
12
 20
35
 11
12
 21
36
  0
LINE
  5
9B
100
AcDbEntity
  8
frame
  6
ByLayer
 62
  256
370
   -1
100
AcDbLine
 10
17.9224974371159
 20
35.67750183029345
 11
17.07750278396782
 21
39.32249721603218
  0
LINE
  5
9C
100
AcDbEntity
  8
frame
  6
ByLayer
 62
  256
370
   -1
100
AcDbLine
 10
17.89812972875813
 20
42.140593694018
 11
20.09592477884079
 21
44.29863190649634
  0
LINE
  5
9D
100
AcDbEntity
  8
frame
  6
ByLayer
 62
  256
370
   -1
100
AcDbLine
 10
12
 20
36
 11
6
 21
45
  0
LINE
  5
9E
100
AcDbEntity
  8
frame
  6
ByLayer
 62
  256
370
   -1
100
AcDbLine
 10
6
 20
55
 11
6
 21
45
  0
LINE
  5
9F
100
AcDbEntity
  8
frame
  6
ByLayer
 62
  256
370
   -1
100
AcDbLine
 10
-14
 20
96
 11
-4
 21
104
  0
LINE
  5
A0
100
AcDbEntity
  8
frame
  6
ByLayer
 62
  256
370
   -1
100
AcDbLine
 10
4
 20
104
 11
14
 21
96
  0
LINE
  5
A1
100
AcDbEntity
  8
frame
  6
ByLayer
 62
  256
370
   -1
100
AcDbLine
 10
-4
 20
104
 11
4
 21
104
  0
LINE
  5
A2
100
AcDbEntity
  8
frame
  6
ByLayer
 62
  256
370
   -1
100
AcDbLine
 10
-14
 20
96
 11
-14
 21
90
  0
LINE
  5
A3
100
AcDbEntity
  8
frame
  6
ByLayer
 62
  256
370
   -1
100
AcDbLine
 10
14
 20
96
 11
14
 21
90
  0
ARC
  5
A4
100
AcDbEntity
  8
frame
  6
ByLayer
 62
  256
370
   -1
100
AcDbCircle
 10
0
 20
8
 40
6
100
AcDbArc
 50
180.0000002845912
 51
359.9999977232703
  0
LINE
  5
A5
100
AcDbEntity
  8
frame
  6
ByLayer
 62
  256
370
   -1
100
AcDbLine
 10
6
 20
8.000000238418583
 11
6
 21
10
  0
LINE
  5
A6
100
AcDbEntity
  8
frame
  6
ByLayer
 62
  256
370
   -1
100
AcDbLine
 10
-5.999999999999979
 20
8.000000506639489
 11
-6
 21
10
  0
LINE
  5
A7
100
AcDbEntity
  8
frame
  6
ByLayer
 62
  256
370
   -1
100
AcDbLine
 10
-14
 20
2
 11
-6
 21
-4
  0
LINE
  5
A8
100
AcDbEntity
  8
frame
  6
ByLayer
 62
  256
370
   -1
100
AcDbLine
 10
-6
 20
-4
 11
6
 21
-4
  0
LINE
  5
A9
100
AcDbEntity
  8
frame
  6
ByLayer
 62
  256
370
   -1
100
AcDbLine
 10
6
 20
-4
 11
14
 21
2
  0
LINE
  5
AA
100
AcDbEntity
  8
frame
  6
ByLayer
 62
  256
370
   -1
100
AcDbLine
 10
-14
 20
10
 11
-14
 21
2
  0
LINE
  5
AB
100
AcDbEntity
  8
frame
  6
ByLayer
 62
  256
370
   -1
100
AcDbLine
 10
14
 20
2
 11
14
 21
10
  0
LINE
  5
AC
100
AcDbEntity
  8
frame
  6
ByLayer
 62
  256
370
   -1
100
AcDbLine
 10
-38
 20
4
 11
-38
 21
-4
  0
LINE
  5
AD
100
AcDbEntity
  8
frame
  6
ByLayer
 62
  256
370
   -1
100
AcDbLine
 10
-45.91277904171999
 20
13.92586218546199
 11
-39.81726449964432
 21
8.744674824697654
  0
ARC
  5
AE
100
AcDbEntity
  8
frame
  6
ByLayer
 62
  256
370
   -1
100
AcDbCircle
 10
-52.5
 20
0
 40
8
100
AcDbArc
 50
79.63546342690202
 51
330.0000000000001
  0
LINE
  5
AF
100
AcDbEntity
  8
frame
  6
ByLayer
 62
  256
370
   -1
100
AcDbLine
 10
-39.81726449964432
 20
8.744674824697654
 11
-43.85023810063732
 21
4
  0
LINE
  5
B0
100
AcDbEntity
  8
frame
  6
ByLayer
 62
  256
370
   -1
100
AcDbLine
 10
-38
 20
4
 11
-43.85023810063732
 21
4
  0
LINE
  5
B1
100
AcDbEntity
  8
frame
  6
ByLayer
 62
  256
370
   -1
100
AcDbLine
 10
-38
 20
-4
 11
-45.5717967697245
 21
-4.000000000000014
  0
LINE
  5
B2
100
AcDbEntity
  8
frame
  6
ByLayer
 62
  256
370
   -1
100
AcDbLine
 10
-45.91277904172
 20
13.92586218546195
 11
-51.06071739484896
 21
7.869464122957311
  0
CIRCLE
  5
B3
100
AcDbEntity
  8
frame
  6
ByLayer
 62
  256
370
   -1
100
AcDbCircle
 10
-52.5
 20
0
 40
2.5
  0
CIRCLE
  5
B4
100
AcDbEntity
  8
frame
  6
ByLayer
 62
  256
370
   -1
100
AcDbCircle
 10
-54.05255461038794
 20
-4.223692008393063
 40
1.25
  0
CIRCLE
  5
B5
100
AcDbEntity
  8
frame
  6
ByLayer
 62
  256
370
   -1
100
AcDbCircle
 10
-56.72369200839306
 20
1.552554610387925
 40
1.25
  0
CIRCLE
  5
B6
100
AcDbEntity
  8
frame
  6
ByLayer
 62
  256
370
   -1
100
AcDbCircle
 10
-50.94744538961206
 20
4.223692008393063
 40
1.25
  0
CIRCLE
  5
B7
100
AcDbEntity
  8
frame
  6
ByLayer
 62
  256
370
   -1
100
AcDbCircle
 10
-48.27630799160697
 20
-1.552554610387913
 40
1.25
  0
LINE
  5
B8
100
AcDbEntity
  8
frame
  6
ByLayer
 62
  256
370
   -1
100
AcDbLine
 10
38
 20
4
 11
38
 21
-4
  0
LINE
  5
B9
100
AcDbEntity
  8
frame
  6
ByLayer
 62
  256
370
   -1
100
AcDbLine
 10
45.91277904171999
 20
13.92586218546197
 11
39.81726449964432
 21
8.74467482469764
  0
ARC
  5
BA
100
AcDbEntity
  8
frame
  6
ByLayer
 62
  256
370
   -1
100
AcDbCircle
 10
52.5
 20
0
 40
8
100
AcDbArc
 50
209.9999999999999
 51
100.364536573098
  0
LINE
  5
BB
100
AcDbEntity
  8
frame
  6
ByLayer
 62
  256
370
   -1
100
AcDbLine
 10
39.81726449964432
 20
8.74467482469764
 11
43.85023810063732
 21
4
  0
LINE
  5
BC
100
AcDbEntity
  8
frame
  6
ByLayer
 62
  256
370
   -1
100
AcDbLine
 10
38
 20
4
 11
43.85023810063732
 21
4
  0
LINE
  5
BD
100
AcDbEntity
  8
frame
  6
ByLayer
 62
  256
370
   -1
100
AcDbLine
 10
38
 20
-4
 11
45.5717967697245
 21
-4.000000000000014
  0
LINE
  5
BE
100
AcDbEntity
  8
frame
  6
ByLayer
 62
  256
370
   -1
100
AcDbLine
 10
45.91277904172
 20
13.92586218546194
 11
51.06071739484896
 21
7.869464122957297
  0
CIRCLE
  5
BF
100
AcDbEntity
  8
frame
  6
ByLayer
 62
  256
370
   -1
100
AcDbCircle
 10
52.5
 20
0
 40
2.5
  0
CIRCLE
  5
C0
100
AcDbEntity
  8
frame
  6
ByLayer
 62
  256
370
   -1
100
AcDbCircle
 10
54.05255461038794
 20
-4.223692008393054
 40
1.25
  0
CIRCLE
  5
C1
100
AcDbEntity
  8
frame
  6
ByLayer
 62
  256
370
   -1
100
AcDbCircle
 10
56.72369200839306
 20
1.552554610387933
 40
1.25
  0
CIRCLE
  5
C2
100
AcDbEntity
  8
frame
  6
ByLayer
 62
  256
370
   -1
100
AcDbCircle
 10
50.94744538961206
 20
4.223692008393054
 40
1.25
  0
CIRCLE
  5
C3
100
AcDbEntity
  8
frame
  6
ByLayer
 62
  256
370
   -1
100
AcDbCircle
 10
48.27630799160697
 20
-1.552554610387917
 40
1.25
  0
LINE
  5
C4
100
AcDbEntity
  8
frame
  6
ByLayer
 62
  256
370
   -1
100
AcDbLine
 10
-38
 20
96
 11
-38
 21
104
  0
LINE
  5
C5
100
AcDbEntity
  8
frame
  6
ByLayer
 62
  256
370
   -1
100
AcDbLine
 10
-45.91277904172001
 20
86.07413781453801
 11
-39.81726449964432
 21
91.25532517530235
  0
ARC
  5
C6
100
AcDbEntity
  8
frame
  6
ByLayer
 62
  256
370
   -1
100
AcDbCircle
 10
-52.5
 20
100
 40
8
100
AcDbArc
 50
29.99999999999986
 51
280.364536573098
  0
LINE
  5
C7
100
AcDbEntity
  8
frame
  6
ByLayer
 62
  256
370
   -1
100
AcDbLine
 10
-39.81726449964432
 20
91.25532517530235
 11
-43.85023810063732
 21
96
  0
LINE
  5
C8
100
AcDbEntity
  8
frame
  6
ByLayer
 62
  256
370
   -1
100
AcDbLine
 10
-38
 20
96
 11
-43.85023810063732
 21
96
  0
LINE
  5
C9
100
AcDbEntity
  8
frame
  6
ByLayer
 62
  256
370
   -1
100
AcDbLine
 10
-38
 20
104
 11
-45.5717967697245
 21
104
  0
LINE
  5
CA
100
AcDbEntity
  8
frame
  6
ByLayer
 62
  256
370
   -1
100
AcDbLine
 10
-45.91277904172
 20
86.07413781453805
 11
-51.06071739484897
 21
92.13053587704269
  0
CIRCLE
  5
CB
100
AcDbEntity
  8
frame
  6
ByLayer
 62
  256
370
   -1
100
AcDbCircle
 10
-52.5
 20
100
 40
2.5
  0
CIRCLE
  5
CC
100
AcDbEntity
  8
frame
  6
ByLayer
 62
  256
370
   -1
100
AcDbCircle
 10
-54.05255461038796
 20
104.2236920083931
 40
1.25
  0
CIRCLE
  5
CD
100
AcDbEntity
  8
frame
  6
ByLayer
 62
  256
370
   -1
100
AcDbCircle
 10
-56.72369200839306
 20
98.44744538961207
 40
1.25
  0
CIRCLE
  5
CE
100
AcDbEntity
  8
frame
  6
ByLayer
 62
  256
370
   -1
100
AcDbCircle
 10
-50.94744538961206
 20
95.77630799160694
 40
1.25
  0
CIRCLE
  5
CF
100
AcDbEntity
  8
frame
  6
ByLayer
 62
  256
370
   -1
100
AcDbCircle
 10
-48.27630799160697
 20
101.5525546103879
 40
1.25
  0
LINE
  5
D0
100
AcDbEntity
  8
frame
  6
ByLayer
 62
  256
370
   -1
100
AcDbLine
 10
38.00000000000001
 20
96
 11
38.00000000000001
 21
104
  0
LINE
  5
D1
100
AcDbEntity
  8
frame
  6
ByLayer
 62
  256
370
   -1
100
AcDbLine
 10
45.91277904171998
 20
86.07413781453803
 11
39.81726449964432
 21
91.25532517530236
  0
ARC
  5
D2
100
AcDbEntity
  8
frame
  6
ByLayer
 62
  256
370
   -1
100
AcDbCircle
 10
52.5
 20
100
 40
8
100
AcDbArc
 50
259.635463426902
 51
150.0000000000001
  0
LINE
  5
D3
100
AcDbEntity
  8
frame
  6
ByLayer
 62
  256
370
   -1
100
AcDbLine
 10
39.81726449964432
 20
91.25532517530236
 11
43.85023810063732
 21
96
  0
LINE
  5
D4
100
AcDbEntity
  8
frame
  6
ByLayer
 62
  256
370
   -1
100
AcDbLine
 10
38.00000000000001
 20
96
 11
43.85023810063732
 21
96
  0
LINE
  5
D5
100
AcDbEntity
  8
frame
  6
ByLayer
 62
  256
370
   -1
100
AcDbLine
 10
38.00000000000001
 20
104
 11
45.5717967697245
 21
104
  0
LINE
  5
D6
100
AcDbEntity
  8
frame
  6
ByLayer
 62
  256
370
   -1
100
AcDbLine
 10
45.91277904171999
 20
86.07413781453806
 11
51.06071739484897
 21
92.1305358770427
  0
CIRCLE
  5
D7
100
AcDbEntity
  8
frame
  6
ByLayer
 62
  256
370
   -1
100
AcDbCircle
 10
52.5
 20
100
 40
2.5
  0
CIRCLE
  5
D8
100
AcDbEntity
  8
frame
  6
ByLayer
 62
  256
370
   -1
100
AcDbCircle
 10
54.05255461038794
 20
104.2236920083931
 40
1.25
  0
CIRCLE
  5
D9
100
AcDbEntity
  8
frame
  6
ByLayer
 62
  256
370
   -1
100
AcDbCircle
 10
56.72369200839303
 20
98.44744538961207
 40
1.25
  0
CIRCLE
  5
DA
100
AcDbEntity
  8
frame
  6
ByLayer
 62
  256
370
   -1
100
AcDbCircle
 10
50.94744538961206
 20
95.77630799160694
 40
1.25
  0
CIRCLE
  5
DB
100
AcDbEntity
  8
frame
  6
ByLayer
 62
  256
370
   -1
100
AcDbCircle
 10
48.27630799160698
 20
101.5525546103879
 40
1.25
  0
LINE
  5
DC
100
AcDbEntity
  8
tubes
  6
ByLayer
 62
  256
370
   -1
100
AcDbLine
 10
44.75403330758517
 20
102
 11
44.75403330758473
 21
98
  0
LINE
  5
DD
100
AcDbEntity
  8
tubes
  6
ByLayer
 62
  256
370
   -1
100
AcDbLine
 10
45.95945827402592
 20
95.39334026318501
 11
49.00721554506375
 21
92.80274658280284
  0
LINE
  5
DE
100
AcDbEntity
  8
tubes
  6
ByLayer
 62
  256
370
   -1
100
AcDbLine
 10
-44.75403330758519
 20
102
 11
-44.75403330758514
 21
97.99999999999999
  0
LINE
  5
DF
100
AcDbEntity
  8
tubes
  6
ByLayer
 62
  256
370
   -1
100
AcDbLine
 10
-45.95945827402592
 20
95.39334026318501
 11
-49.00721554506377
 21
92.80274658280284
  0
LINE
  5
E0
100
AcDbEntity
  8
tubes
  6
ByLayer
 62
  256
370
   -1
100
AcDbLine
 10
49.0072155450638
 20
7.197253417197098
 11
45.95945827402593
 21
4.606659736814973
  0
LINE
  5
E1
100
AcDbEntity
  8
tubes
  6
ByLayer
 62
  256
370
   -1
100
AcDbLine
 10
44.75403330758514
 20
2
 11
44.75403330758522
 21
-2
  0
LINE
  5
E2
100
AcDbEntity
  8
tubes
  6
ByLayer
 62
  256
370
   -1
100
AcDbLine
 10
44.75403330758522
 20
-2
 11
-44.75403330758514
 21
-2
  0
LINE
  5
E3
100
AcDbEntity
  8
tubes
  6
ByLayer
 62
  256
370
   -1
100
AcDbLine
 10
-44.75403330758514
 20
-2
 11
-44.75403330758522
 21
2
  0
LINE
  5
E4
100
AcDbEntity
  8
tubes
  6
ByLayer
 62
  256
370
   -1
100
AcDbLine
 10
-45.95945827402593
 20
4.606659736814973
 11
-49.0072155450638
 21
7.197253417197098
  0
LINE
  5
E5
100
AcDbEntity
  8
tubes
  6
ByLayer
 62
  256
370
   -1
100
AcDbLine
 10
-44.75403330758519
 20
102
 11
44.75403330758517
 21
102
  0
LINE
  5
E6
100
AcDbEntity
  8
tubes
  6
ByLayer
 62
  256
370
   -1
100
AcDbLine
 10
-44.75403330758514
 20
97.99999999999999
 11
44.75403330758473
 21
98
  0
LINE
  5
E7
100
AcDbEntity
  8
tubes
  6
ByLayer
 62
  256
370
   -1
100
AcDbLine
 10
44.75403330758513
 20
2
 11
-44.75403330758522
 21
2
  0
LINE
  5
E8
100
AcDbEntity
  8
tubes
  6
ByLayer
 62
  256
370
   -1
100
AcDbLine
 10
8
 20
98
 11
8
 21
2
  0
LINE
  5
E9
100
AcDbEntity
  8
tubes
  6
ByLayer
 62
  256
370
   -1
100
AcDbLine
 10
12
 20
98
 11
12
 21
2
  0
LINE
  5
EA
100
AcDbEntity
  8
tubes
  6
ByLayer
 62
  256
370
   -1
100
AcDbLine
 10
-8
 20
98
 11
-8
 21
2
  0
LINE
  5
EB
100
AcDbEntity
  8
tubes
  6
ByLayer
 62
  256
370
   -1
100
AcDbLine
 10
-12
 20
98
 11
-12
 21
2
  0
LINE
  5
EC
100
AcDbEntity
  8
tubes
  6
ByLayer
 62
  256
370
   -1
100
AcDbLine
 10
-45.95945827402592
 20
95.39334026318501
 11
-12
 21
55.4410364113898
  0
LINE
  5
ED
100
AcDbEntity
  8
tubes
  6
ByLayer
 62
  256
370
   -1
100
AcDbLine
 10
-49.00721554506374
 20
92.80274658280284
 11
-15.04775727103783
 21
52.85044273100765
  0
LINE
  5
EE
100
AcDbEntity
  8
tubes
  6
ByLayer
 62
  256
370
   -1
100
AcDbLine
 10
-15.04775727103783
 20
52.85044273100765
 11
-12
 21
55.44103641138981
  0
LINE
  5
EF
100
AcDbEntity
  8
tubes
  6
ByLayer
 62
  256
370
   -1
100
AcDbLine
 10
-49.0072155450638
 20
7.197253417197102
 11
-15.04775727103782
 21
47.14955726899236
  0
LINE
  5
F0
100
AcDbEntity
  8
tubes
  6
ByLayer
 62
  256
370
   -1
100
AcDbLine
 10
-45.95945827402593
 20
4.606659736814972
 11
-11.99999999999999
 21
44.5589635886102
  0
LINE
  5
F1
100
AcDbEntity
  8
tubes
  6
ByLayer
 62
  256
370
   -1
100
AcDbLine
 10
-12
 20
44.55896358861021
 11
-15.04775727103782
 21
47.14955726899236
  0
LINE
  5
F2
100
AcDbEntity
  8
tubes
  6
ByLayer
 62
  256
370
   -1
100
AcDbLine
 10
11.99999999999999
 20
44.5589635886102
 11
45.95945827402593
 21
4.60665973681497
  0
LINE
  5
F3
100
AcDbEntity
  8
tubes
  6
ByLayer
 62
  256
370
   -1
100
AcDbLine
 10
15.04775727103784
 20
47.14955726899236
 11
49.00721554506381
 21
7.197253417197099
  0
LINE
  5
F4
100
AcDbEntity
  8
tubes
  6
ByLayer
 62
  256
370
   -1
100
AcDbLine
 10
12
 20
44.5589635886102
 11
15.04775727103784
 21
47.14955726899236
  0
LINE
  5
F5
100
AcDbEntity
  8
tubes
  6
ByLayer
 62
  256
370
   -1
100
AcDbLine
 10
15.04775727103784
 20
52.85044273100765
 11
49.00721554506375
 21
92.80274658280284
  0
LINE
  5
F6
100
AcDbEntity
  8
tubes
  6
ByLayer
 62
  256
370
   -1
100
AcDbLine
 10
12
 20
55.44103641138981
 11
45.95945827402591
 21
95.393340263185
  0
LINE
  5
F7
100
AcDbEntity
  8
tubes
  6
ByLayer
 62
  256
370
   -1
100
AcDbLine
 10
15.04775727103784
 20
52.85044273100764
 11
12
 21
55.44103641138982
  0
LINE
  5
F8
100
AcDbEntity
  8
tubes
  6
ByLayer
 62
  256
370
   -1
100
AcDbLine
 10
-12
 20
98
 11
-8
 21
98
  0
LINE
  5
F9
100
AcDbEntity
  8
tubes
  6
ByLayer
 62
  256
370
   -1
100
AcDbLine
 10
8
 20
98
 11
12
 21
98
  0
LINE
  5
FA
100
AcDbEntity
  8
tubes
  6
ByLayer
 62
  256
370
   -1
100
AcDbLine
 10
-12
 20
2
 11
-8
 21
2
  0
LINE
  5
FB
100
AcDbEntity
  8
tubes
  6
ByLayer
 62
  256
370
   -1
100
AcDbLine
 10
8
 20
2
 11
12
 21
2
  0
LINE
  5
FC
100
AcDbEntity
  8
face
  6
ByLayer
 62
  256
370
   -1
100
AcDbLine
 10
-14
 20
2
 11
-6
 21
-4
  0
LINE
  5
FD
100
AcDbEntity
  8
face
  6
ByLayer
 62
  256
370
   -1
100
AcDbLine
 10
-6
 20
-4
 11
6
 21
-4
  0
LINE
  5
FE
100
AcDbEntity
  8
face
  6
ByLayer
 62
  256
370
   -1
100
AcDbLine
 10
6
 20
-4
 11
14
 21
2
  0
LINE
  5
FF
100
AcDbEntity
  8
face
  6
ByLayer
 62
  256
370
   -1
100
AcDbLine
 10
-14
 20
10
 11
-14
 21
2
  0
LINE
  5
100
100
AcDbEntity
  8
face
  6
ByLayer
 62
  256
370
   -1
100
AcDbLine
 10
14
 20
2
 11
14
 21
10
  0
ARC
  5
101
100
AcDbEntity
  8
face
  6
ByLayer
 62
  256
370
   -1
100
AcDbCircle
 10
0
 20
8
 40
5.2
100
AcDbArc
 50
180.0000007342676
 51
359.9999981424334
  0
LINE
  5
102
100
AcDbEntity
  8
face
  6
ByLayer
 62
  256
370
   -1
100
AcDbLine
 10
-14
 20
10
 11
-4.800000000000002
 21
10
  0
LINE
  5
103
100
AcDbEntity
  8
face
  6
ByLayer
 62
  256
370
   -1
100
AcDbLine
 10
4.800000000000002
 20
10
 11
14
 21
10
  0
ARC
  5
104
100
AcDbEntity
  8
face
  6
ByLayer
 62
  256
370
   -1
100
AcDbCircle
 10
0
 20
8
 40
5.2
100
AcDbArc
 50
157.3801350519595
 51
382.6198649480404
  0
LINE
  5
105
100
AcDbEntity
  8
rear
  6
ByLayer
 62
  256
370
   -1
100
AcDbLine
 10
-6
 20
-4
 11
-6
 21
-10
  0
LINE
  5
106
100
AcDbEntity
  8
rear
  6
ByLayer
 62
  256
370
   -1
100
AcDbLine
 10
6
 20
-4
 11
6
 21
-10
  0
LINE
  5
107
100
AcDbEntity
  8
rear
  6
ByLayer
 62
  256
370
   -1
100
AcDbLine
 10
-14
 20
-4
 11
-14
 21
-10
  0
CIRCLE
  5
108
100
AcDbEntity
  8
rear
  6
ByLayer
 62
  256
370
   -1
100
AcDbCircle
 10
0
 20
0
 40
2
  0
LINE
  5
109
100
AcDbEntity
  8
rear
  6
ByLayer
 62
  256
370
   -1
100
AcDbLine
 10
3
 20
2
 11
3
 21
-2
  0
LINE
  5
10A
100
AcDbEntity
  8
rear
  6
ByLayer
 62
  256
370
   -1
100
AcDbLine
 10
3
 20
-2
 11
4
 21
-2
  0
LINE
  5
10B
100
AcDbEntity
  8
rear
  6
ByLayer
 62
  256
370
   -1
100
AcDbLine
 10
4
 20
-2
 11
4
 21
2
  0
LINE
  5
10C
100
AcDbEntity
  8
rear
  6
ByLayer
 62
  256
370
   -1
100
AcDbLine
 10
4
 20
2
 11
3
 21
2
  0
LINE
  5
10D
100
AcDbEntity
  8
rear
  6
ByLayer
 62
  256
370
   -1
100
AcDbLine
 10
14
 20
-1
 11
14
 21
-10
  0
LINE
  5
10E
100
AcDbEntity
  8
rear
  6
ByLayer
 62
  256
370
   -1
100
AcDbLine
 10
14
 20
-1
 11
8
 21
4
  0
LINE
  5
10F
100
AcDbEntity
  8
rear
  6
ByLayer
 62
  256
370
   -1
100
AcDbLine
 10
-4
 20
4
 11
-14
 21
-4
  0
LINE
  5
110
100
AcDbEntity
  8
rear
  6
ByLayer
 62
  256
370
   -1
100
AcDbLine
 10
-14
 20
-10
 11
-6
 21
-10
  0
LINE
  5
111
100
AcDbEntity
  8
rear
  6
ByLayer
 62
  256
370
   -1
100
AcDbLine
 10
-6
 20
-4
 11
6
 21
-4
  0
LINE
  5
112
100
AcDbEntity
  8
rear
  6
ByLayer
 62
  256
370
   -1
100
AcDbLine
 10
6
 20
-10
 11
14
 21
-10
  0
LINE
  5
113
100
AcDbEntity
  8
rear
  6
ByLayer
 62
  256
370
   -1
100
AcDbLine
 10
-4
 20
4
 11
8
 21
4
  0
LINE
  5
114
100
AcDbEntity
  8
rear
  6
ByLayer
 62
  256
370
   -1
100
AcDbLine
 10
6.900000000000001
 20
2
 11
6.900000000000001
 21
-2
  0
LINE
  5
115
100
AcDbEntity
  8
rear
  6
ByLayer
 62
  256
370
   -1
100
AcDbLine
 10
6.900000000000001
 20
-2
 11
7.900000000000001
 21
-2
  0
LINE
  5
116
100
AcDbEntity
  8
rear
  6
ByLayer
 62
  256
370
   -1
100
AcDbLine
 10
7.900000000000001
 20
-2
 11
7.900000000000001
 21
2
  0
LINE
  5
117
100
AcDbEntity
  8
rear
  6
ByLayer
 62
  256
370
   -1
100
AcDbLine
 10
7.900000000000001
 20
2
 11
6.900000000000001
 21
2
  0
ENDSEC
  0
SECTION
  2
OBJECTS
  0
DICTIONARY
  5
C
330
0
100
AcDbDictionary
281
    1
  3
ACAD_GROUP
350
D
  0
DICTIONARY
  5
D
330
C
100
AcDbDictionary
281
    1
  0
ENDSEC
  0
EOF
